<svg height="23" viewBox="0 0 262 23" fill="none" xmlns="http://www.w3.org/2000/svg">
<path fill-rule="evenodd" clip-rule="evenodd" d="M139.202 19.299L137.902 22.4629L136.401 18.2925C136.386 18.2565 136.371 18.2243 136.357 18.1957L136.357 18.1956L136.357 18.1956L136.34 18.1594C136.315 18.1224 136.288 18.0953 136.256 18.0753C136.163 18.0253 136.009 17.9993 135.795 17.9993V17.525H137.666L137.818 17.9993C137.452 17.9993 137.267 18.0773 137.267 18.2364C137.267 18.2704 137.274 18.3115 137.289 18.3615L138.008 20.4447L139.264 17.3429L140.514 20.4447L141.769 17.3569L142.218 17.538L140.473 22.4629L139.202 19.299ZM90.4851 21.6248C90.9091 21.1735 91.1211 20.5992 91.1211 19.9068C91.1211 19.2134 90.9061 18.6361 90.4781 18.1798C90.0271 17.7015 89.4241 17.4624 88.6701 17.4624C87.9301 17.4624 87.3321 17.7045 86.8761 18.1878C86.4431 18.6381 86.2271 19.2134 86.2271 19.9068C86.2271 20.5942 86.4391 21.1685 86.8621 21.6248C87.3181 22.1131 87.9161 22.3572 88.6561 22.3572C89.4241 22.3572 90.0341 22.1131 90.4851 21.6248ZM84.8172 18.1748C85.0682 18.1748 85.2172 18.3349 85.2642 18.6561L85.7312 18.557L85.5922 17.5244H82.5972L82.4992 18.0067C82.8212 18.0067 82.9812 18.1328 82.9812 18.3839V22.2882H83.8402V20.4581C83.8402 20.3451 83.9002 20.276 84.0212 20.249L85.1592 19.9688V19.6346H83.8122V18.1748H84.8172ZM90.2271 19.9068C90.2271 19.4035 90.0871 18.9773 89.8081 18.628C89.5101 18.2598 89.1311 18.0767 88.6701 18.0767C88.2091 18.0767 87.8321 18.2608 87.5391 18.6351C87.2601 18.9893 87.1211 19.4125 87.1211 19.9068C87.1211 20.4041 87.2601 20.8283 87.5391 21.1775C87.8321 21.5508 88.2091 21.7359 88.6701 21.7359C89.1361 21.7359 89.5151 21.5508 89.8081 21.1775C90.0871 20.8193 90.2271 20.3951 90.2271 19.9068ZM95.2187 21.8622C95.5397 21.5321 95.6997 21.0708 95.6997 20.4794V17.5247H95.1067L94.9037 20.4024C94.8427 21.2729 94.4877 21.7092 93.8387 21.7092C93.5447 21.7092 93.2997 21.5831 93.1037 21.3319C92.9777 21.1668 92.9147 20.8727 92.9147 20.4444V18.3632C92.9147 18.1211 93.0747 17.999 93.3967 17.999L93.2917 17.5247H91.6647V17.999C91.8747 17.999 92.0097 18.062 92.0697 18.1881C92.1077 18.2571 92.1257 18.4142 92.1257 18.6564V20.5285C92.1257 21.1268 92.3047 21.5941 92.6637 21.9233C92.9797 22.2124 93.3757 22.3575 93.8497 22.3575C94.4317 22.3575 94.8877 22.1924 95.2187 21.8622ZM101.047 18.0063C100.744 18.0063 100.593 18.1544 100.593 18.4525V22.3788L97.5569 18.8588V22.2868H96.8439V18.3835C96.8439 18.1324 96.6859 18.0063 96.3699 18.0063L96.4669 17.525H97.4309L99.8809 20.3887V18.5936C99.8809 18.3985 99.8579 18.2604 99.8109 18.1814C99.7509 18.0723 99.6279 18.0163 99.4419 18.0063L99.4689 17.525H100.963L101.047 18.0063ZM105.528 21.5675C105.956 21.1162 106.171 20.5609 106.171 19.8995C106.171 19.2521 105.975 18.7098 105.584 18.2725C105.137 17.7732 104.521 17.5231 103.734 17.5231H101.64L101.542 18.0064C101.859 18.0064 102.017 18.1325 102.017 18.3836V22.2879H103.727C104.476 22.2879 105.077 22.0488 105.528 21.5675ZM105.277 19.9205C105.277 19.4222 105.132 19.001 104.844 18.6548C104.555 18.3116 104.141 18.1395 103.602 18.1395H102.876V21.6585H103.63C104.128 21.6585 104.525 21.4964 104.823 21.1702C105.126 20.84 105.277 20.4228 105.277 19.9205ZM106.721 18.0063C107.038 18.0063 107.196 18.1324 107.196 18.3835V22.2868H110.1V21.6384H108.062V20.4007C108.062 20.3246 108.073 20.2776 108.097 20.2536C108.125 20.2266 108.174 20.2056 108.243 20.1916L109.486 19.9134V19.5772H108.027V18.1744H109.144C109.395 18.1744 109.544 18.3345 109.591 18.6547L110.058 18.5586L109.919 17.525H106.819L106.721 18.0063ZM115.19 19.8995C115.19 20.5609 114.975 21.1162 114.547 21.5675C114.096 22.0488 113.495 22.2879 112.746 22.2879H111.036V18.3836C111.036 18.1325 110.878 18.0064 110.561 18.0064L110.659 17.5231H112.753C113.54 17.5231 114.156 17.7732 114.603 18.2725C114.994 18.7098 115.19 19.2521 115.19 19.8995ZM113.863 18.6548C114.151 19.001 114.296 19.4222 114.296 19.9205C114.296 20.4228 114.145 20.84 113.842 21.1702C113.544 21.4964 113.147 21.6585 112.649 21.6585H111.895V18.1395H112.621C113.16 18.1395 113.574 18.3116 113.863 18.6548ZM117.576 22.2881V21.8118C117.8 21.8118 117.941 21.7648 118.002 21.6667C118.058 21.5827 118.086 21.4126 118.086 21.1564V17.5233H118.93V21.4496C118.93 21.6227 119.005 21.7328 119.154 21.7848C119.177 21.7948 119.214 21.8018 119.265 21.8068C119.317 21.8098 119.382 21.8118 119.461 21.8118L119.356 22.2881H117.576ZM124.082 18.4525C124.082 18.1544 124.233 18.0063 124.536 18.0063L124.452 17.525H122.958L122.931 18.0063C123.117 18.0163 123.24 18.0723 123.3 18.1814C123.347 18.2604 123.37 18.3985 123.37 18.5936V20.3887L120.92 17.525H119.956L119.859 18.0063C120.175 18.0063 120.333 18.1324 120.333 18.3835V22.2868H121.046V18.8588L124.082 22.3788V18.4525ZM131.663 18.0063C131.359 18.0063 131.21 18.1544 131.21 18.4525V22.3788L128.173 18.8588V22.2868H127.46V18.3835C127.46 18.1324 127.303 18.0063 126.986 18.0063L127.083 17.525H128.047L130.497 20.3887V18.5936C130.497 18.3985 130.474 18.2604 130.428 18.1814C130.366 18.0723 130.243 18.0163 130.058 18.0063L130.086 17.525H131.579L131.663 18.0063ZM132.158 18.0063C132.476 18.0063 132.634 18.1324 132.634 18.3835V22.2868H135.536V21.6384H133.498V20.4007C133.498 20.3246 133.511 20.2776 133.533 20.2536C133.562 20.2266 133.611 20.2056 133.681 20.1916L134.922 19.9134V19.5772H133.463V18.1744H134.58C134.831 18.1744 134.982 18.3345 135.028 18.6547L135.494 18.5586L135.356 17.525H132.256L132.158 18.0063ZM146.037 22.2881H146.896V20.367L148.362 17.5313L147.985 17.3852L146.568 19.6195L145.87 18.2507C145.856 18.2137 145.847 18.1847 145.847 18.1677C145.847 18.0556 145.998 17.9996 146.294 17.9996L146.126 17.5233H144.292V17.9996C144.458 17.9996 144.571 18.0096 144.625 18.0276C144.744 18.0586 144.83 18.1307 144.884 18.2367L146.037 20.382V22.2881ZM153.541 19.9068C153.541 20.5992 153.329 21.1735 152.905 21.6248C152.454 22.1131 151.843 22.3572 151.077 22.3572C150.335 22.3572 149.739 22.1131 149.283 21.6248C148.859 21.1685 148.647 20.5942 148.647 19.9068C148.647 19.2134 148.864 18.6381 149.295 18.1878C149.751 17.7045 150.349 17.4624 151.089 17.4624C151.843 17.4624 152.447 17.7015 152.898 18.1798C153.327 18.6361 153.541 19.2134 153.541 19.9068ZM152.228 18.628C152.506 18.9773 152.647 19.4035 152.647 19.9068C152.647 20.3951 152.506 20.8193 152.228 21.1775C151.934 21.5508 151.554 21.7359 151.089 21.7359C150.628 21.7359 150.251 21.5508 149.959 21.1775C149.679 20.8283 149.541 20.4041 149.541 19.9068C149.541 19.4125 149.679 18.9893 149.959 18.6351C150.251 18.2608 150.628 18.0767 151.089 18.0767C151.55 18.0767 151.929 18.2598 152.228 18.628ZM158.008 22.0303C158.008 22.1134 157.973 22.1884 157.902 22.2515C157.833 22.3235 157.757 22.3575 157.673 22.3575C157.578 22.3575 157.501 22.3185 157.436 22.2395L155.911 20.2063H155.425V21.45C155.425 21.6921 155.585 21.8132 155.905 21.8132L155.802 22.2885H154.56V18.3832C154.56 18.1321 154.4 18.006 154.085 18.006L154.183 17.5247H155.98C156.468 17.5247 156.853 17.6388 157.136 17.8669C157.424 18.1 157.567 18.4152 157.567 18.8165C157.567 19.3618 157.316 19.749 156.815 19.9831L157.973 21.9043C157.995 21.9413 158.008 21.9833 158.008 22.0303ZM155.802 18.1321C156.401 18.1321 156.703 18.3582 156.709 18.8095C156.714 19.3178 156.398 19.5709 155.767 19.5709H155.39V18.1321H155.802ZM162.544 22.0644C162.544 22.1334 162.518 22.2024 162.462 22.2675C162.4 22.3275 162.332 22.3575 162.259 22.3575C162.18 22.3575 162.096 22.3185 162.008 22.2395L159.851 20.1652C159.794 20.1092 159.747 20.0952 159.71 20.1232C159.701 20.1312 159.691 20.1392 159.684 20.1442C159.684 20.1482 159.676 20.1582 159.661 20.1703C159.644 20.1953 159.635 20.2323 159.635 20.2843V22.2885H158.774V18.5933C158.774 18.3882 158.751 18.2491 158.705 18.1731C158.636 18.058 158.506 18 158.315 18L158.335 17.5247H160.019L160.103 18.005C159.789 18.001 159.635 18.1511 159.635 18.4542V19.6259L161.547 17.5247H162.462V17.6848C162.462 17.7688 162.412 17.8249 162.315 17.8529C162.092 17.9209 161.906 18.032 161.764 18.1811L160.472 19.5709L162.482 21.9043C162.523 21.9513 162.544 22.0023 162.544 22.0644ZM166.258 21.6669C166.187 21.769 166.015 21.82 165.741 21.82V22.2883H167.173V17.4555L165.532 17.9017V18.5301L165.901 18.424C165.985 18.402 166.051 18.39 166.096 18.39C166.256 18.39 166.335 18.4861 166.335 18.6752V21.1756C166.335 21.4278 166.308 21.5909 166.258 21.6669ZM171.715 19.3133C171.73 20.0767 171.601 20.7301 171.332 21.2744C171.018 21.9088 170.57 22.256 169.984 22.315C169.626 22.354 169.338 22.26 169.125 22.0368V21.7227C169.171 21.7307 169.347 21.7347 169.656 21.7347C169.971 21.7347 170.229 21.5966 170.429 21.3154C170.612 21.0643 170.727 20.7101 170.779 20.2488C170.755 20.2678 170.631 20.2928 170.409 20.3248C170.311 20.3415 170.231 20.3535 170.168 20.363L170.142 20.3669C170.078 20.3769 170.036 20.3819 170.016 20.3819C169.994 20.3859 169.966 20.3889 169.939 20.3889H169.855C169.497 20.3889 169.188 20.2608 168.931 20.0047C168.657 19.7295 168.519 19.3753 168.519 18.941C168.519 18.5218 168.67 18.1696 168.973 17.8814C169.278 17.5972 169.663 17.4552 170.129 17.4552C171.164 17.4552 171.694 18.0735 171.715 19.3133ZM170.108 18.0765C170.608 18.0765 170.858 18.5098 170.858 19.3753V19.5364C170.854 19.5774 170.851 19.6179 170.848 19.6586L170.848 19.659L170.843 19.7185C170.843 19.7275 170.798 19.7385 170.711 19.7525C170.627 19.7575 170.585 19.7645 170.585 19.7725H170.157C169.914 19.7725 169.721 19.6935 169.582 19.5364C169.446 19.3733 169.379 19.1712 169.379 18.929C169.379 18.6729 169.444 18.4658 169.575 18.3077C169.711 18.1516 169.887 18.0765 170.108 18.0765ZM175.291 20.9396C175.291 21.3769 175.124 21.7291 174.788 21.9952C174.473 22.2414 174.084 22.3654 173.622 22.3654C173.487 22.3654 173.371 22.3624 173.273 22.3574C173.206 22.3515 173.147 22.3447 173.095 22.3387L173.095 22.3387C173.068 22.3356 173.044 22.3328 173.021 22.3304L172.883 21.7221C173.156 21.7951 173.401 21.8271 173.615 21.8131C173.877 21.7901 174.071 21.702 174.201 21.546C174.337 21.3849 174.404 21.1737 174.404 20.9186C174.404 20.4193 174.115 20.1061 173.538 19.976L173.329 19.927L173.211 19.5298C173.263 19.5248 173.314 19.5218 173.371 19.5218C173.432 19.5218 173.494 19.5198 173.561 19.5148C174.038 19.4918 174.278 19.2516 174.278 18.7943C174.278 18.5852 174.214 18.4171 174.084 18.286C173.947 18.151 173.77 18.0839 173.546 18.0839C173.322 18.0839 173.165 18.139 173.07 18.25C173.024 18.3071 172.982 18.4171 172.945 18.5792C172.912 18.7093 172.865 18.7843 172.807 18.8024C172.802 18.8074 172.767 18.8144 172.7 18.8244C172.607 18.8244 172.535 18.7963 172.484 18.7473V17.9018C172.681 17.6137 173.065 17.4646 173.644 17.4606C174.1 17.4576 174.47 17.5596 174.754 17.7687C175.032 17.9789 175.173 18.279 175.173 18.6683C175.173 18.9454 175.078 19.1826 174.894 19.3807C174.734 19.5548 174.544 19.6759 174.32 19.7459C174.613 19.8249 174.847 19.966 175.02 20.1702C175.199 20.3803 175.291 20.6374 175.291 20.9396ZM177.414 21.6669C177.343 21.769 177.171 21.82 176.897 21.82V22.2883H178.329V17.4555L176.688 17.9017V18.5301L177.057 18.424C177.141 18.402 177.207 18.39 177.252 18.39C177.412 18.39 177.491 18.4861 177.491 18.6752V21.1756C177.491 21.4278 177.464 21.5909 177.414 21.6669Z" fill="white"/>
<path fill-rule="evenodd" clip-rule="evenodd" d="M70.4412 10.4657C70.1496 10.9529 69.7291 11.3422 69.1798 11.6375C68.6894 11.8874 68.222 12.0123 67.7776 12.0123C66.7379 12.0123 65.9139 11.5988 65.3077 10.7718C64.7464 10.0019 64.4658 9.03926 64.4658 7.88296C64.4658 6.68212 64.7524 5.7195 65.3247 4.99512C65.9439 4.21264 66.7788 3.82236 67.8305 3.82236C68.6485 3.82236 69.4135 4.09352 70.1256 4.63778V0.356379L72.1061 0V9.6329L73.1229 10.9403L71.6327 12.0123L70.4412 10.4657ZM41.8455 11.4177C41.8455 11.5649 41.7806 11.7005 41.6528 11.8235C41.5 11.9484 41.3482 12.0123 41.1964 12.0123C40.9047 12.0123 40.7 11.8874 40.5831 11.6375L39.094 8.64704H34.0124L33.3293 10.2614C33.2943 10.3408 33.2763 10.4202 33.2763 10.4996C33.2763 10.794 33.5799 10.9403 34.1882 10.9403L33.8726 11.8419H30.0344V10.9403C30.6886 10.9403 31.0861 10.7824 31.2259 10.4657L34.9063 1.8003C34.9412 1.70927 34.9582 1.63663 34.9582 1.57756C34.9582 1.26185 34.6955 1.10303 34.1702 1.10303L34.5377 0.2024H37.1484L41.7926 11.1775C41.8276 11.2579 41.8455 11.3383 41.8455 11.4177ZM5.15251 1.71459C6.48384 1.71459 7.15 2.32567 7.15 3.55072C7.15 4.10563 6.96823 4.55304 6.60668 4.89295C6.23315 5.22125 5.73079 5.38588 5.09958 5.38588H3.27787V1.71459H5.15251ZM9.26316 4.13533C9.29125 3.95412 9.30529 3.76506 9.30529 3.56815C9.30529 2.5484 8.96072 1.73783 8.27359 1.13741C7.57347 0.547643 6.60668 0.254211 5.37124 0.254211H0.245691L0 1.42697C0.794999 1.42697 1.1925 1.73202 1.1925 2.34407V11.8424H4.31157L4.57424 10.6861C3.76826 10.6861 3.36476 10.3907 3.36476 9.80286V6.89759H4.95476C6.30606 6.89759 7.37172 6.60222 8.15174 6.01439C8.70874 5.57951 9.06403 5.03185 9.2176 4.37141V5.14591H10.6188C11.4248 5.14591 11.9452 5.20982 12.1779 5.33475C12.4825 5.50325 12.6343 5.88384 12.6343 6.47168V6.64212C12.6223 6.64212 12.3886 6.70507 11.9332 6.82999C11.5007 6.9433 11.256 7.01109 11.1971 7.03433C9.30549 7.59989 8.35868 8.51795 8.35868 9.78465C8.35868 10.4209 8.5804 10.9516 9.02484 11.3835C9.46828 11.7912 9.99362 11.9956 10.6019 11.9956C11.279 11.9956 12.0091 11.8474 12.7921 11.554C13.6171 11.2344 14.2253 11.0668 14.6138 11.0436V6.37096C14.6138 5.47614 14.3192 4.80793 13.7299 4.36633C13.1996 3.9683 12.4665 3.78818 11.5307 3.82207L11.0573 3.855C10.8935 3.86759 10.7357 3.88502 10.5839 3.90729L9.72496 4.04384C9.52254 4.08326 9.36883 4.11397 9.26316 4.13533ZM12.6343 7.4585C12.0031 7.60473 11.4598 7.8817 11.0043 8.28941C10.5599 8.68743 10.3392 9.10579 10.3392 9.54835C10.3392 9.9793 10.4321 10.3057 10.6188 10.5342C10.8056 10.7831 11.0683 10.908 11.4068 10.908C11.8513 10.908 12.2598 10.7318 12.6343 10.3812V7.4585ZM20.4494 5.11279C21.2084 5.11279 21.6698 5.66866 21.8336 6.77847L22.5168 11.8424H23.7612V6.67679C23.7612 5.75872 23.5155 5.04597 23.0251 4.53658C22.5697 4.05914 21.9565 3.82188 21.1854 3.82188C20.2157 3.82188 19.3917 4.2354 18.7145 5.0634H18.6796V4.04365L18.2941 3.73569L15.8581 4.17729L15.7183 5.11279C16.3725 5.02369 16.6991 5.32293 16.6991 6.01439V11.8424H18.6796V7.42441L18.5048 6.28555C19.158 5.505 19.8072 5.11279 20.4494 5.11279ZM38.3749 7.20313H34.6256L36.3255 2.97306L38.3749 7.20313ZM47.8902 6.04838C47.5397 5.65133 47.1422 5.45377 46.6987 5.45377C45.9387 5.45377 45.2965 5.75882 44.7711 6.37086L44.911 7.61045V10.107C44.911 10.4373 45.0218 10.6523 45.2446 10.753C45.4073 10.8227 45.7229 10.8566 46.1904 10.8566L45.9796 11.8405H42.9315V6.01448C42.9315 5.34434 42.6039 5.04606 41.9497 5.11288L42.0895 4.17739L44.5255 3.73676L44.911 4.06021V5.18067C44.923 5.18067 44.9349 5.17583 44.9459 5.16421C45.2376 4.77781 45.5941 4.4621 46.0156 4.21225C46.459 3.95271 46.8915 3.82198 47.312 3.82198C47.9072 3.82198 48.4036 3.99242 48.8011 4.33233L48.065 5.99705L47.8902 6.04838ZM54.9341 7.04963C55.1098 7.04963 55.2906 7.02833 55.4774 6.98281V4.90845C55.1738 4.52495 54.8402 4.24702 54.4786 4.07754C54.0931 3.9071 53.5848 3.82091 52.9545 3.82091C51.7391 3.82091 50.7633 4.21312 50.0272 4.99464C49.2922 5.77616 48.9236 6.78428 48.9236 8.01805C48.9236 9.19662 49.3091 10.1583 50.0802 10.9078C50.8632 11.6429 51.838 12.0109 53.0065 12.0109C53.4509 12.0109 54.0582 11.9101 54.8292 11.7058V10.7713H53.4619C52.6799 10.7713 52.0607 10.5001 51.6052 9.9549C51.1728 9.4581 50.9571 8.77827 50.9571 7.91734C50.9571 7.10096 51.1608 6.43371 51.5693 5.9127C51.9788 5.41397 52.5041 5.17573 53.1473 5.19801C53.6607 5.20963 53.9763 5.38007 54.0931 5.70837C54.1161 5.85557 54.146 5.99599 54.181 6.13254C54.204 6.27877 54.2279 6.43371 54.2509 6.59157C54.3088 6.89759 54.5376 7.04963 54.9341 7.04963ZM62.7837 11.0436C62.3952 11.0668 61.7869 11.2344 60.962 11.554C60.179 11.8474 59.4489 11.9956 58.7717 11.9956C58.1635 11.9956 57.6382 11.7912 57.1947 11.3835C56.7503 10.9516 56.5286 10.4209 56.5286 9.78465C56.5286 8.51795 57.4754 7.59989 59.367 7.03433C59.4259 7.01109 59.6706 6.9433 60.1031 6.82999C60.5585 6.70507 60.7922 6.64212 60.8042 6.64212V6.47168C60.8042 5.88384 60.6524 5.50325 60.3477 5.33475C60.115 5.20982 59.5947 5.14591 58.7887 5.14591H57.3875V4.14456C57.4923 4.12325 57.6611 4.08936 57.8948 4.04384L58.7538 3.90729C58.9056 3.88502 59.0634 3.86759 59.2272 3.855L59.7006 3.82207C60.6364 3.78818 61.3695 3.9683 61.8998 4.36633C62.4891 4.80793 62.7837 5.47614 62.7837 6.37096V11.0436ZM59.1742 8.28941C59.6297 7.8817 60.173 7.60473 60.8042 7.4585V10.3812C60.4296 10.7318 60.0212 10.908 59.5767 10.908C59.2381 10.908 58.9755 10.7831 58.7887 10.5342C58.6019 10.3057 58.5091 9.9793 58.5091 9.54836C58.5091 9.10579 58.7298 8.68743 59.1742 8.28941ZM68.3299 5.09584C69.045 5.09584 69.7022 5.36797 70.3014 5.91222L70.1256 7.26995V9.53025C69.7032 10.3796 69.1339 10.8057 68.4178 10.8057C67.6667 10.8057 67.1384 10.4134 66.8338 9.6329C66.5751 9.28136 66.4463 8.63639 66.4463 7.69605C66.4463 6.88064 66.6101 6.24633 66.9386 5.7931C67.2792 5.32729 67.7426 5.09584 68.3299 5.09584ZM76.487 1.69803C76.487 1.93626 76.3991 2.15125 76.2244 2.34397C76.0376 2.52506 75.8089 2.61513 75.5412 2.61513C75.2716 2.61513 75.0439 2.52506 74.8571 2.34397C74.6703 2.16191 74.5764 1.94789 74.5764 1.69803C74.5764 1.43656 74.6703 1.21673 74.8571 1.03466C75.0439 0.854536 75.2716 0.763504 75.5412 0.763504C75.7979 0.763504 76.0196 0.854536 76.2064 1.03466C76.3932 1.21673 76.487 1.43656 76.487 1.69803ZM74.5764 8.80044C74.5764 9.90929 74.8691 10.7586 75.4533 11.3493L76.1185 12.0108L77.6086 10.9416L76.5569 9.63135V4.04355L76.1714 3.73559L73.7365 4.17913L73.5957 5.11172C74.2498 5.02359 74.5764 5.32284 74.5764 6.01429V8.80044ZM84.617 11.0436C84.2285 11.0668 83.6203 11.2344 82.7953 11.554C82.0123 11.8474 81.2822 11.9956 80.605 11.9956C79.9968 11.9956 79.4715 11.7912 79.028 11.3835C78.5836 10.9516 78.3619 10.4209 78.3619 9.78465C78.3619 8.51795 79.3087 7.59989 81.2003 7.03433C81.2592 7.01109 81.5039 6.9433 81.9364 6.82999C82.3918 6.70507 82.6255 6.64212 82.6375 6.64212V6.47168C82.6375 5.88384 82.4857 5.50325 82.1811 5.33475C81.9484 5.20982 81.428 5.14591 80.622 5.14591H79.2208V4.14456C79.3257 4.12325 79.4944 4.08936 79.7281 4.04384L80.5871 3.90729C80.7389 3.88502 80.8967 3.86759 81.0605 3.855L81.5339 3.82207C82.4697 3.78818 83.2028 3.9683 83.7331 4.36633C84.3224 4.80793 84.617 5.47614 84.617 6.37096V11.0436ZM81.0075 8.28941C81.463 7.8817 82.0063 7.60473 82.6375 7.4585V10.3812C82.263 10.7318 81.8545 10.908 81.41 10.908C81.0715 10.908 80.8088 10.7831 80.622 10.5342C80.4353 10.3057 80.3424 9.9793 80.3424 9.54836C80.3424 9.10579 80.5631 8.68743 81.0075 8.28941ZM91.8368 6.77847C91.673 5.66866 91.2116 5.11279 90.4526 5.11279C89.8104 5.11279 89.1612 5.505 88.508 6.28555L88.6828 7.42441V11.8424H86.7023V6.01439C86.7023 5.32293 86.3757 5.02369 85.7215 5.11279L85.8613 4.17729L88.2973 3.73569L88.6828 4.04365V5.0634H88.7177C89.3949 4.2354 90.2188 3.82188 91.1886 3.82188C91.9597 3.82188 92.5729 4.05914 93.0283 4.53658C93.5187 5.04597 93.7644 5.75872 93.7644 6.67679V11.8424H92.52L91.8368 6.77847ZM106.188 1.83419C106.818 1.83419 107.193 2.2235 107.31 3.00695L108.483 2.76872L108.132 0.253727H100.615L100.37 1.42649C101.176 1.42649 101.58 1.73251 101.58 2.34261V11.8419H103.734V7.38906C103.734 7.11791 103.886 6.94746 104.19 6.88064L107.047 6.20081V5.3854H103.665V1.83419H106.188ZM110.096 8.71522C110.107 9.28175 110.324 9.75628 110.744 10.1427C111.152 10.5175 111.661 10.7034 112.269 10.7034H113.074V11.8248C112.537 11.9498 112.058 12.0108 111.638 12.0108C110.551 12.0108 109.657 11.6089 108.956 10.8041C108.255 10.0003 107.905 9.0164 107.905 7.84945C107.905 6.61471 108.285 5.61821 109.044 4.85896C109.745 4.16848 110.627 3.82081 111.69 3.82081C112.707 3.82081 113.536 4.11715 114.179 4.70595C115.008 5.45357 115.411 6.58663 115.388 8.10221H109.622L110.096 8.71522ZM113.425 6.60697C113.46 6.79 113.478 6.94301 113.478 7.06793H110.463L109.938 7.04953C110.102 5.73635 110.727 5.07783 111.813 5.07783C112.713 5.07783 113.25 5.58915 113.425 6.60697ZM122.274 10.4657C121.982 10.9529 121.561 11.3422 121.012 11.6375C120.522 11.8874 120.054 12.0123 119.61 12.0123C118.57 12.0123 117.746 11.5988 117.14 10.7718C116.579 10.0019 116.298 9.03926 116.298 7.88296C116.298 6.68212 116.585 5.7195 117.157 4.99512C117.776 4.21264 118.611 3.82236 119.663 3.82236C120.481 3.82236 121.246 4.09352 121.958 4.63778V0.356379L123.938 0V9.6329L124.955 10.9403L123.465 12.0123L122.274 10.4657ZM120.162 5.09584C120.877 5.09584 121.534 5.36797 122.134 5.91222L121.958 7.26995V9.53025C121.535 10.3796 120.966 10.8057 120.25 10.8057C119.499 10.8057 118.971 10.4134 118.666 9.6329C118.407 9.28136 118.279 8.63639 118.279 7.69605C118.279 6.88064 118.442 6.24633 118.771 5.7931C119.111 5.32729 119.575 5.09584 120.162 5.09584ZM128.056 8.71522C128.068 9.28175 128.285 9.75628 128.705 10.1427C129.114 10.5175 129.622 10.7034 130.228 10.7034H131.036V11.8248C130.499 11.9498 130.018 12.0108 129.598 12.0108C128.512 12.0108 127.618 11.6089 126.918 10.8041C126.216 10.0003 125.865 9.0164 125.865 7.84945C125.865 6.61471 126.246 5.61821 127.005 4.85896C127.707 4.16848 128.588 3.82081 129.652 3.82081C130.668 3.82081 131.498 4.11715 132.139 4.70595C132.968 5.45357 133.372 6.58663 133.347 8.10221H127.584L128.056 8.71522ZM131.385 6.60697C131.42 6.79 131.439 6.94301 131.439 7.06793H128.424L127.899 7.04953C128.062 5.73635 128.687 5.07783 129.773 5.07783C130.672 5.07783 131.21 5.58915 131.385 6.60697ZM139.971 6.04838C139.621 5.65133 139.225 5.45377 138.782 5.45377C138.022 5.45377 137.377 5.75882 136.853 6.37086L136.994 7.61045V10.107C136.994 10.4373 137.105 10.6523 137.326 10.753C137.49 10.8227 137.804 10.8566 138.273 10.8566L138.063 11.8405H135.012V6.01448C135.012 5.34434 134.685 5.04606 134.033 5.11288L134.17 4.17739L136.608 3.73676L136.994 4.06021V5.18067C137.004 5.18067 137.016 5.17583 137.029 5.16421C137.32 4.77781 137.676 4.4621 138.096 4.21225C138.54 3.95271 138.972 3.82198 139.394 3.82198C139.99 3.82198 140.486 3.99242 140.883 4.33233L140.148 5.99705L139.971 6.04838ZM145.596 11.554C146.421 11.2344 147.03 11.0668 147.417 11.0436V6.37096C147.417 5.47614 147.124 4.80793 146.535 4.36633C146.003 3.9683 145.271 3.78818 144.335 3.82207L143.862 3.855C143.698 3.86759 143.54 3.88502 143.387 3.90729L142.53 4.04384C142.309 4.08702 142.145 4.11974 142.037 4.14117L142.036 4.14138L142.02 4.14456V5.14591H143.422C144.228 5.14591 144.75 5.20982 144.983 5.33475C145.287 5.50325 145.439 5.88384 145.439 6.47168V6.64212C145.426 6.64212 145.193 6.70507 144.738 6.82999C144.304 6.9433 144.059 7.01109 144.003 7.03433C142.109 7.59989 141.163 8.51795 141.163 9.78465C141.163 10.4209 141.384 10.9516 141.829 11.3835C142.272 11.7912 142.797 11.9956 143.406 11.9956C144.084 11.9956 144.814 11.8474 145.596 11.554ZM145.439 7.4585C144.807 7.60473 144.263 7.8817 143.808 8.28941C143.365 8.68743 143.142 9.10579 143.142 9.54836C143.142 9.9793 143.237 10.3057 143.422 10.5342C143.61 10.7831 143.874 10.908 144.211 10.908C144.656 10.908 145.064 10.7318 145.439 10.3812V7.4585ZM151.868 12.012C152.454 12.012 153.12 11.9326 153.866 11.7738V10.754H152.237C151.559 10.754 151.222 10.3638 151.222 9.58225V5.28342H153.71V3.99252H151.222V1.37584L149.68 1.68089L149.24 9.49606C149.193 10.2563 149.422 10.8722 149.925 11.3496C150.402 11.7912 151.052 12.012 151.868 12.012ZM157.46 1.69803C157.46 1.93626 157.371 2.15125 157.196 2.34397C157.01 2.52506 156.781 2.61513 156.514 2.61513C156.243 2.61513 156.018 2.52506 155.829 2.34397C155.643 2.16191 155.55 1.94789 155.55 1.69803C155.55 1.43656 155.643 1.21673 155.829 1.03466C156.018 0.854536 156.243 0.763504 156.514 0.763504C156.771 0.763504 156.991 0.854536 157.18 1.03466C157.365 1.21673 157.46 1.43656 157.46 1.69803ZM155.55 8.80044C155.55 9.90929 155.842 10.7586 156.426 11.3493L157.092 12.0108L158.58 10.9416L157.529 9.63135V4.04355L157.145 3.73559L154.707 4.17913L154.567 5.11172C155.223 5.02359 155.55 5.32284 155.55 6.01429V8.80044ZM167.203 7.84771C167.203 10.6251 165.898 12.0119 163.295 12.0119C162.092 12.0119 161.156 11.6614 160.49 10.9573C159.812 10.2562 159.473 9.21803 159.473 7.84771C159.473 6.56939 159.824 5.57288 160.525 4.85916C161.203 4.16867 162.127 3.82198 163.295 3.82198C164.533 3.82198 165.491 4.16189 166.169 4.84173C166.856 5.5448 167.203 6.54712 167.203 7.84771ZM163.276 5.02766C164.526 5.02766 165.151 5.97478 165.151 7.86611C165.151 9.82426 164.526 10.8053 163.276 10.8053C162.096 10.8053 161.508 9.82038 161.508 7.84771C161.508 7.01099 161.647 6.34859 161.926 5.86147C162.255 5.30463 162.705 5.02766 163.276 5.02766ZM174.019 6.77847C173.855 5.66866 173.394 5.11279 172.634 5.11279C171.993 5.11279 171.342 5.505 170.689 6.28555L170.865 7.42441V11.8424H168.884V6.01439C168.884 5.32293 168.556 5.02369 167.904 5.11279L168.044 4.17729L170.48 3.73569L170.865 4.04365V5.0634H170.9C171.577 4.2354 172.401 3.82188 173.371 3.82188C174.141 3.82188 174.754 4.05914 175.21 4.53658C175.702 5.04597 175.947 5.75872 175.947 6.67679V11.8424H174.703L174.019 6.77847ZM186.302 12.0119C188.906 12.0119 190.21 10.6251 190.21 7.84771C190.21 6.54712 189.863 5.5448 189.176 4.84173C188.498 4.16189 187.54 3.82198 186.302 3.82198C185.134 3.82198 184.21 4.16867 183.532 4.85916C182.832 5.57288 182.481 6.56939 182.481 7.84771C182.481 9.21803 182.819 10.2562 183.498 10.9573C184.165 11.6614 185.099 12.0119 186.302 12.0119ZM188.159 7.86611C188.159 5.97478 187.534 5.02766 186.283 5.02766C185.713 5.02766 185.262 5.30463 184.935 5.86147C184.654 6.34859 184.515 7.01099 184.515 7.84771C184.515 9.82038 185.103 10.8053 186.283 10.8053C187.534 10.8053 188.159 9.82426 188.159 7.86611ZM195.659 1.47636C195.718 1.47636 195.774 1.48217 195.834 1.49476L196.588 1.47636V0.117663L195.571 0.0837685C195.385 0.0392211 195.18 0.0169474 194.959 0.0169474C194.257 0.0169474 193.649 0.254211 193.136 0.729706C192.483 1.34175 192.153 2.19687 192.153 3.29409V4.31481H190.964V5.60571H192.153V13.4054C192.153 13.5632 192.219 13.7037 192.348 13.8286C192.465 13.9429 192.604 14 192.768 14C193.142 14 193.347 13.8015 193.382 13.4054L194.048 6.08024C194.07 5.82167 194.203 5.66382 194.449 5.60571L195.678 5.31616V4.31481H194.257V3.22727C194.257 2.63944 194.332 2.21914 194.484 1.97026C194.66 1.67586 194.992 1.51607 195.483 1.49476C195.543 1.49476 195.601 1.48895 195.659 1.47636ZM212.708 11.4177C212.708 11.5649 212.643 11.7005 212.515 11.8235C212.365 11.9484 212.211 12.0123 212.06 12.0123C211.767 12.0123 211.563 11.8874 211.448 11.6375L209.959 8.64704H204.877L204.192 10.2614C204.158 10.3408 204.139 10.4202 204.139 10.4996C204.139 10.794 204.443 10.9403 205.052 10.9403L204.735 11.8419H200.897V10.9403C201.553 10.9403 201.949 10.7824 202.091 10.4657L205.769 1.8003C205.804 1.70927 205.822 1.63663 205.822 1.57756C205.822 1.26185 205.558 1.10303 205.034 1.10303L205.401 0.2024H208.012L212.657 11.1775C212.691 11.2579 212.708 11.3383 212.708 11.4177ZM209.24 7.20313H205.488L207.188 2.97306L209.24 7.20313ZM223.818 6.71039C223.818 6.24652 223.683 5.87271 223.415 5.58896C223.134 5.30618 222.79 5.16382 222.382 5.16382C221.76 5.16382 221.161 5.48728 220.577 6.13225L220.768 7.37376V11.1283H219.524L218.842 6.76172C218.748 6.14968 218.606 5.73616 218.421 5.5202C218.233 5.28197 217.947 5.16382 217.562 5.16382C216.838 5.16382 216.182 5.5202 215.599 6.2349L215.774 7.42412V11.8421H213.795V6.0141C213.795 5.34589 213.468 5.04567 212.813 5.11346L212.952 4.17894L215.39 3.73734L215.774 4.06079V5.06311C216.593 4.23414 217.388 3.82256 218.158 3.82256C219.198 3.82256 219.969 4.28062 220.47 5.19772C221.264 4.28062 222.165 3.82256 223.171 3.82256C223.953 3.82256 224.584 4.07047 225.061 4.57018C225.552 5.07763 225.797 5.75359 225.797 6.59128V11.8421H223.818V6.71039ZM230.32 10.1427C229.899 9.75628 229.682 9.28175 229.67 8.71522L229.198 8.10221H234.962C234.987 6.58663 234.582 5.45357 233.753 4.70595C233.112 4.11715 232.282 3.82081 231.265 3.82081C230.203 3.82081 229.321 4.16848 228.621 4.85896C227.861 5.61821 227.481 6.61471 227.481 7.84945C227.481 9.0164 227.831 10.0003 228.533 10.8041C229.233 11.6089 230.126 12.0108 231.212 12.0108C231.633 12.0108 232.113 11.9498 232.651 11.8248V10.7034H231.843C231.236 10.7034 230.728 10.5175 230.32 10.1427ZM233.053 7.06793C233.053 6.94301 233.034 6.79 232.999 6.60697C232.824 5.58915 232.286 5.07783 231.388 5.07783C230.301 5.07783 229.675 5.73635 229.513 7.04953L230.038 7.06793H233.053ZM240.396 5.45377C240.839 5.45377 241.235 5.65133 241.585 6.04838L241.762 5.99705L242.497 4.33233C242.101 3.99242 241.604 3.82198 241.008 3.82198C240.587 3.82198 240.154 3.95271 239.711 4.21225C239.29 4.4621 238.935 4.77781 238.643 5.16421C238.63 5.17583 238.618 5.18067 238.608 5.18067V4.06021L238.223 3.73676L235.785 4.17739L235.647 5.11288C236.299 5.04606 236.627 5.34434 236.627 6.01448V11.8405H239.677L239.887 10.8566C239.418 10.8566 239.104 10.8227 238.941 10.753C238.719 10.6523 238.608 10.4373 238.608 10.107V7.61045L238.467 6.37086C238.992 5.75882 239.636 5.45377 240.396 5.45377ZM245.773 1.69803C245.773 1.93626 245.685 2.15125 245.51 2.34397C245.324 2.52506 245.094 2.61513 244.828 2.61513C244.557 2.61513 244.331 2.52506 244.143 2.34397C243.957 2.16191 243.864 1.94789 243.864 1.69803C243.864 1.43656 243.957 1.21673 244.143 1.03466C244.331 0.854536 244.557 0.763504 244.828 0.763504C245.084 0.763504 245.305 0.854536 245.494 1.03466C245.679 1.21673 245.773 1.43656 245.773 1.69803ZM243.864 8.80044C243.864 9.90929 244.156 10.7586 244.74 11.3493L245.406 12.0108L246.894 10.9416L245.842 9.63135V4.04355L245.459 3.73559L243.021 4.17913L242.881 5.11172C243.536 5.02359 243.864 5.32284 243.864 6.01429V8.80044ZM254.044 6.98281C253.858 7.02833 253.677 7.04963 253.5 7.04963C253.105 7.04963 252.875 6.89759 252.817 6.59157C252.794 6.43371 252.771 6.27877 252.747 6.13254C252.713 5.99599 252.684 5.85557 252.659 5.70837C252.542 5.38007 252.228 5.20963 251.714 5.19801C251.07 5.17573 250.545 5.41397 250.137 5.9127C249.728 6.43371 249.524 7.10096 249.524 7.91734C249.524 8.77827 249.738 9.4581 250.172 9.9549C250.627 10.5001 251.245 10.7713 252.028 10.7713H253.396V11.7058C252.624 11.9101 252.018 12.0109 251.572 12.0109C250.404 12.0109 249.43 11.6429 248.648 10.9078C247.875 10.1583 247.491 9.19662 247.491 8.01805C247.491 6.78428 247.859 5.77616 248.595 4.99464C249.329 4.21312 250.306 3.82091 251.522 3.82091C252.151 3.82091 252.659 3.9071 253.046 4.07754C253.406 4.24702 253.739 4.52495 254.044 4.90845V6.98281ZM259.178 11.554C260.003 11.2344 260.612 11.0668 261 11.0436V6.37096C261 5.47614 260.706 4.80793 260.118 4.36633C259.586 3.9683 258.854 3.78818 257.918 3.82207L257.444 3.855C257.281 3.86759 257.123 3.88502 256.97 3.90729L256.112 4.04384C255.892 4.08689 255.728 4.11954 255.621 4.14098L255.62 4.14117L255.619 4.14138L255.603 4.14456V5.14591H257.005C257.811 5.14591 258.332 5.20982 258.566 5.33475C258.87 5.50325 259.021 5.88384 259.021 6.47168V6.64212C259.009 6.64212 258.776 6.70507 258.32 6.82999C257.887 6.9433 257.641 7.01109 257.585 7.03433C255.692 7.59989 254.746 8.51795 254.746 9.78465C254.746 10.4209 254.967 10.9516 255.412 11.3835C255.854 11.7912 256.38 11.9956 256.989 11.9956C257.666 11.9956 258.396 11.8474 259.178 11.554ZM259.022 7.4585C258.389 7.60473 257.846 7.8817 257.391 8.28941C256.948 8.68743 256.724 9.10579 256.724 9.54836C256.724 9.9793 256.819 10.3057 257.005 10.5342C257.193 10.7831 257.456 10.908 257.794 10.908C258.238 10.908 258.647 10.7318 259.022 10.3812V7.4585ZM29.9623 6.77896H25.9673V8.7158H29.9623V6.77896Z" fill="white"/>
</svg>
